{
    "asset": {
        "version": "2.0"
    },
    "accessors": [
        {
            "bufferView": 0,
            "byteOffset": 0,
            "type": "VEC3",
            "componentType": 5120,
            "count": 2,
            "min": [
                0,
                0,
                0
            ],
            "max": [
                1,
                1,
                1
            ]
        }
    ],
    "bufferViews": [
        {
            "buffer": 0,
            "byteLength": 6
        }
    ],
    "buffers": [
        {
            "byteLength": 6,
            "uri": "out_of_range_elements_sint8.bin"
        }
    ]
}