{
    "asset": {
        "version": "2.0"
    },
    "accessors": [
        {
            "bufferView": 0,
            "byteOffset": 0,
            "type": "VEC3",
            "componentType": 5126,
            "count": 2,
            "min": [
                0.0,
                0.0,
                0.0
            ],
            "max": [
                1.0,
                1.0,
                1.0
            ]
        }
    ],
    "bufferViews": [
        {
            "buffer": 0,
            "byteLength": 24
        }
    ],
    "buffers": [
        {
            "byteLength": 24,
            "uri": "out_of_range_elements_float.bin"
        }
    ]
}