{
    "asset": {
        "version": "2.0"
    },
    "animations": [
        {
            "samplers": [
                {
                    "input": 0,
                    "output": 1,
                    "interpolation": "LINEAR"
                }
            ],
            "channels": [
                {
                    "sampler": 0,
                    "target": {
                        "node": 0,
                        "path": "scale"
                    }
                }
            ]
        }
    ],
    "accessors": [
        {
            "type": "SCALAR",
            "componentType": 5126,
            "count": 4,
            "min": [-1],
            "max": [1],
            "bufferView": 0
        },
        {
            "type": "VEC3",
            "componentType": 5126,
            "count": 4
        }
    ],
    "nodes": [
        {
            "extras": {
                "value": "not empty"
            }
        }
    ],
    "bufferViews": [
        {
            "buffer": 0,
            "byteLength": 16
        }
    ],
    "buffers": [
        {
            "byteLength": 16,
            "uri": "invalid_input_values.bin"

        }
    ]
}