{
    "asset": {
        "version": "2.0"
    },
    "animations": [
        {
            "samplers": [
                {
                    "input": 1,
                    "output": 1,
                    "interpolation": "LINEAR"
                },
                {
                    "input": 0,
                    "output": 2,
                    "interpolation": "CUBICSPLINE"
                },
                {
                    "input": 0,
                    "output": 3,
                    "interpolation": "CATMULLROMSPLINE"
                }
            ],
            "channels": [
                {
                    "sampler": 1,
                    "target": {
                        "node": 0,
                        "path": "scale"
                    }
                },
                {
                    "sampler": 1,
                    "target": {
                        "node": 1,
                        "path": "weights"
                    }
                },
                {
                    "sampler": 2,
                    "target": {
                        "node": 1,
                        "path": "scale"
                    }
                },
                {
                    "sampler": 2,
                    "target": {
                        "node": 1,
                        "path": "scale"
                    }
                }
            ]
        }
    ],
    "accessors": [
        {
            "bufferView": 0,
            "type": "SCALAR",
            "componentType": 5126,
            "count": 2,
            "min": [0],
            "max": [1]
        },
        {
            "type": "VEC2",
            "componentType": 5126,
            "count": 2
        },
        {
            "bufferView": 0,
            "type": "SCALAR",
            "componentType": 5126,
            "count": 2
        },
        {
            "type": "VEC3",
            "componentType": 5126,
            "count": 3
        }
    ],
    "nodes": [
        {
            "matrix":[2.0, 0.0, 0.0, 0.0, 0.0, 1.0, 0.0, 0.0, 0.0, 0.0, 1.0, 0.0, 0.0, 0.0, 0.0, 1.0]
        },
        {

        }
    ],
    "bufferViews": [
        {
            "buffer": 0,
            "byteLength": 8
        }
    ],
    "buffers": [
        {
            "uri": "",
            "byteLength": 8
        }
    ]
}