{
    "asset": {
        "version": "2.0"
    },
    "animations": [
        {
            "samplers": [
                {
                    "input": 0,
                    "output": 1
                }
            ],
            "channels": [
                {
                    "target": {
                        "node": 0,
                        "path": "scale"
                    },
                    "sampler": 0
                }
            ]
        }
    ],
    "nodes": [
        {
            "extras": {
                "non_empty": true
            }
        }
    ],
    "accessors": [
        {
            "type": "SCALAR",
            "componentType": 5126,
            "count": 1,
            "min": [0],
            "max": [1],
            "bufferView": 0
        },
        {
            "type": "VEC3",
            "componentType": 5126,
            "count": 1,
            "bufferView": 1
        }
    ],
    "bufferViews": [
        {
            "buffer": 0,
            "byteLength": 4,
            "byteStride": 4
        },
        {
            "buffer": 0,
            "byteOffset": 4,
            "byteLength": 12,
            "byteStride": 12
        }
    ],
    "buffers": [
        {
            "byteLength": 16
        }
    ]
}