{
    "asset": {
        "version": "2.0"
    },
    "meshes": [
        {
            "primitives": [
                {
                    "attributes": {
                        "POSITION": 0
                    },
                    "indices": 1,
                    "targets": [
                        {
                            "POSITION": 2
                        }
                    ]
                }
            ]
        }
    ],
    "accessors": [
        {
            "type": "VEC3",
            "componentType": 5126,
            "count": 4,
            "min": [0, 0, 0],
            "max": [1, 1, 1]
        },
        {
            "type": "SCALAR",
            "componentType": 5125,
            "count": 6,
            "bufferView": 0
        },
        {
            "type": "VEC3",
            "componentType": 5126,
            "count": 4,
            "min": [0, 0, 0],
            "max": [1, 1, 1],
            "bufferView": 0
        }
    ],
    "bufferViews": [
        {
            "buffer": 0,
            "byteLength": 64,
            "target": 34963
        }
    ],
    "buffers": [
        {
            "byteLength": 64
        }
    ]
}